<mxfile host="app.diagrams.net" modified="2022-09-21T00:00:40.487Z" agent="5.0 (Macintosh; Intel Mac OS X 10_15_7) AppleWebKit/537.36 (KHTML, like Gecko) Chrome/105.0.0.0 Safari/537.36 Edg/105.0.1343.42" etag="rVE9FRTx8zkiFhtQ_Wmq" version="20.3.3" type="github">
  <diagram id="MoS_SwR99Cp15dBgRmQF" name="第 1 页">
    <mxGraphModel dx="734" dy="514" grid="1" gridSize="10" guides="1" tooltips="1" connect="1" arrows="1" fold="1" page="1" pageScale="1" pageWidth="827" pageHeight="1169" math="0" shadow="0">
      <root>
        <mxCell id="0" />
        <mxCell id="1" parent="0" />
        <mxCell id="pqptfYR2I7CsKhLC1KfL-1" value="" style="rounded=0;whiteSpace=wrap;html=1;gradientColor=none;container=0;fontSize=11;" vertex="1" parent="1">
          <mxGeometry x="50" y="350" width="600" height="220" as="geometry" />
        </mxCell>
        <mxCell id="pqptfYR2I7CsKhLC1KfL-5" value="a frame" style="text;html=1;align=center;verticalAlign=middle;resizable=0;points=[];autosize=1;strokeColor=none;fillColor=none;fontSize=11;fontFamily=Architects Daughter;rounded=0;" vertex="1" parent="1">
          <mxGeometry x="305" y="295" width="70" height="30" as="geometry" />
        </mxCell>
        <mxCell id="pqptfYR2I7CsKhLC1KfL-4" value="阻塞输入事件" style="rounded=0;whiteSpace=wrap;html=1;hachureGap=4;jiggle=2;fontFamily=Architects Daughter;fontSource=https%3A%2F%2Ffonts.googleapis.com%2Fcss%3Ffamily%3DArchitects%2BDaughter;fontSize=11;container=0;" vertex="1" parent="1">
          <mxGeometry x="70" y="360" width="90" height="150" as="geometry">
            <mxRectangle x="100" y="385" width="50" height="40" as="alternateBounds" />
          </mxGeometry>
        </mxCell>
        <mxCell id="pqptfYR2I7CsKhLC1KfL-9" value="非阻塞输入事件" style="rounded=0;whiteSpace=wrap;html=1;hachureGap=4;jiggle=2;fontFamily=Architects Daughter;fontSource=https%3A%2F%2Ffonts.googleapis.com%2Fcss%3Ffamily%3DArchitects%2BDaughter;fontSize=11;container=0;" vertex="1" parent="1">
          <mxGeometry x="160" y="360" width="90" height="150" as="geometry">
            <mxRectangle x="100" y="385" width="50" height="40" as="alternateBounds" />
          </mxGeometry>
        </mxCell>
        <mxCell id="pqptfYR2I7CsKhLC1KfL-11" value="输入事件" style="rounded=0;whiteSpace=wrap;html=1;fontSize=11;" vertex="1" parent="1">
          <mxGeometry x="70" y="510" width="180" height="40" as="geometry" />
        </mxCell>
      </root>
    </mxGraphModel>
  </diagram>
</mxfile>
